<?xml version="1.0" encoding="UTF-8" standalone="no"?>
<svg
   xmlns:dc="http://purl.org/dc/elements/1.1/"
   xmlns:cc="http://creativecommons.org/ns#"
   xmlns:rdf="http://www.w3.org/1999/02/22-rdf-syntax-ns#"
   xmlns:svg="http://www.w3.org/2000/svg"
   xmlns="http://www.w3.org/2000/svg"
   xmlns:sodipodi="http://sodipodi.sourceforge.net/DTD/sodipodi-0.dtd"
   xmlns:inkscape="http://www.inkscape.org/namespaces/inkscape"
   version="1.1"
   id="Layer_1"
   x="0px"
   y="0px"
   viewBox="0 0 3821.4 2031"
   style="enable-background:new 0 0 3821.4 2031;"
   xml:space="preserve"
   sodipodi:docname="Scrumorg-EBM-KVAdiagram_NL.svg"
   inkscape:version="1.0.1 (c497b03c, 2020-09-10)"
   inkscape:export-filename="/Users/sjoerdkranendonk/github/EBM-Gids-NL/resources/Scrumorg-EBM-KVAdiagram_NL.png"
   inkscape:export-xdpi="96"
   inkscape:export-ydpi="96"><metadata
   id="metadata341"><rdf:RDF><cc:Work
       rdf:about=""><dc:format>image/svg+xml</dc:format><dc:type
         rdf:resource="http://purl.org/dc/dcmitype/StillImage" /></cc:Work></rdf:RDF></metadata><defs
   id="defs339" /><sodipodi:namedview
   pagecolor="#ffffff"
   bordercolor="#666666"
   borderopacity="1"
   objecttolerance="10"
   gridtolerance="10"
   guidetolerance="10"
   inkscape:pageopacity="0"
   inkscape:pageshadow="2"
   inkscape:window-width="1440"
   inkscape:window-height="847"
   id="namedview337"
   showgrid="false"
   inkscape:zoom="0.28706757"
   inkscape:cx="1896.4443"
   inkscape:cy="1154.84"
   inkscape:window-x="3"
   inkscape:window-y="28"
   inkscape:window-maximized="0"
   inkscape:current-layer="Layer_1"
   inkscape:document-rotation="0"
   showguides="true"
   inkscape:guide-bbox="true"><sodipodi:guide
     position="1908.9583,1066.0704"
     orientation="1,0"
     id="guide184" /><sodipodi:guide
     position="985.83064,1578.1449"
     orientation="1,0"
     id="guide186" /><sodipodi:guide
     position="2835.5694,1703.551"
     orientation="1,0"
     id="guide188" /><sodipodi:guide
     position="1257.5437,1365.6514"
     orientation="0,-1"
     id="guide190" /><sodipodi:guide
     position="1477.0042,655.01734"
     orientation="0,-1"
     id="guide192" /></sodipodi:namedview>
<style
   type="text/css"
   id="style10">
	.st0{fill:#D0D2D3;}
	.st1{fill:#57AFC5;}
	.st2{fill:#415870;}
	.st3{fill:#1599B5;}
	.st4{font-family:'Avenir-Medium';}
	.st5{font-size:22.8198px;}
	.st6{fill:none;stroke:#7FA33F;stroke-width:5.7341;stroke-miterlimit:10;}
	.st7{fill:none;stroke:#7FA33F;stroke-width:5.7341;stroke-miterlimit:10;stroke-dasharray:11.9881,11.9881;}
	.st8{fill:#FFFFFF;}
	.st9{fill:#A6A8AB;}
	.st10{fill:none;}
	.st11{fill:#7FA33F;}
	.st12{font-family:'Avenir-Black';}
	.st13{font-size:74.2894px;}
	.st14{font-family:'AvenirLTStd-Heavy';}
	.st15{font-size:63px;}
	.st16{font-size:127.5682px;}
	.st17{font-family:'AvenirLTStd-HeavyOblique';}
	.st18{font-size:61.9395px;}
</style>
<rect
   style="fill:#ffffff"
   id="rect1232"
   width="3814.4329"
   height="2020.4303"
   x="3.4835005"
   y="6" /><g
   id="DO_NOT_EDIT">
	<g
   id="g244">
		<g
   id="g42">
			<g
   id="g40">
				<g
   id="g14">
					<path
   class="st0"
   d="M1901.8,1812.4c-2.5,0-5,0-7.4,0l0.3-64.5c4.3,0,8.6,0,12.9,0l0.3,64.5       C1905.8,1812.4,1903.8,1812.4,1901.8,1812.4z M1921.4,1812.3l-0.8-64.5c4.3-0.1,8.6-0.1,13-0.2l1.4,64.5       C1930.4,1812.1,1925.9,1812.2,1921.4,1812.3z M1880.8,1812.3c-4.5-0.1-9-0.1-13.5-0.2l1.4-64.5c4.3,0.1,8.6,0.2,12.9,0.2       L1880.8,1812.3z M1948.4,1811.7l-1.9-64.5c4.3-0.1,8.6-0.3,12.9-0.4l2.5,64.4C1957.4,1811.4,1952.9,1811.6,1948.4,1811.7z        M1853.8,1811.7c-4.5-0.1-9-0.3-13.5-0.5l2.6-64.4c4.3,0.2,8.6,0.3,12.9,0.5L1853.8,1811.7z M1975.4,1810.6l-3.1-64.4       c4.3-0.2,8.6-0.4,12.9-0.7l3.6,64.4C1984.4,1810.2,1979.9,1810.4,1975.4,1810.6z M1826.8,1810.6c-4.5-0.2-9-0.5-13.5-0.7       l3.7-64.4c4.3,0.2,8.6,0.5,12.9,0.7L1826.8,1810.6z M2002.4,1809.1l-4.2-64.4c4.3-0.3,8.6-0.6,12.9-0.9l4.8,64.3       C2011.4,1808.5,2006.9,1808.8,2002.4,1809.1z M1799.8,1809c-4.5-0.3-9-0.6-13.5-1l4.8-64.3c4.3,0.3,8.6,0.6,12.9,0.9       L1799.8,1809z M2029.3,1807.1l-5.4-64.3c4.3-0.4,8.6-0.7,12.9-1.1l5.9,64.2C2038.3,1806.3,2033.8,1806.7,2029.3,1807.1z        M1772.9,1807c-4.5-0.4-9-0.8-13.5-1.2l6-64.2c4.3,0.4,8.6,0.8,12.9,1.1L1772.9,1807z M2056.3,1804.6l-6.5-64.2       c4.3-0.4,8.6-0.9,12.9-1.4l7.1,64.1C2065.2,1803.7,2060.8,1804.2,2056.3,1804.6z M1746,1804.5c-4.5-0.5-9-0.9-13.4-1.4       l7.2-64.1c4.3,0.5,8.6,0.9,12.9,1.4L1746,1804.5z M2083.2,1801.6l-7.7-64c4.3-0.5,8.6-1,12.8-1.6l8.3,64       C2092.1,1800.5,2087.6,1801.1,2083.2,1801.6z M1719.1,1801.5c-4.5-0.5-9-1.1-13.4-1.7l8.3-64c4.3,0.6,8.5,1.1,12.8,1.6       L1719.1,1801.5z M2110,1798.2l-8.9-63.9c4.3-0.6,8.5-1.2,12.8-1.8l9.4,63.8C2118.9,1796.9,2114.5,1797.5,2110,1798.2z        M1692.2,1798c-4.5-0.6-8.9-1.3-13.4-1.9l9.5-63.8c4.3,0.6,8.5,1.2,12.8,1.8L1692.2,1798z M2136.8,1794.2l-10-63.7       c4.3-0.7,8.5-1.4,12.8-2.1l10.6,63.6C2145.7,1792.8,2141.2,1793.5,2136.8,1794.2z M1665.5,1794c-4.5-0.7-8.9-1.4-13.4-2.2       l10.7-63.6c4.2,0.7,8.5,1.4,12.8,2.1L1665.5,1794z M2163.4,1789.8l-11.2-63.5c4.3-0.8,8.5-1.5,12.7-2.3l11.8,63.4       C2172.3,1788.2,2167.9,1789,2163.4,1789.8z M1638.8,1789.5c-4.4-0.8-8.9-1.6-13.3-2.4l11.9-63.4c4.2,0.8,8.5,1.6,12.7,2.3       L1638.8,1789.5z M2190.1,1784.8l-12.4-63.3c4.2-0.8,8.5-1.7,12.7-2.5l13,63.2C2198.9,1783,2194.5,1783.9,2190.1,1784.8z        M1612.2,1784.6c-4.4-0.9-8.9-1.8-13.3-2.7l13-63.2c4.2,0.9,8.4,1.7,12.7,2.6L1612.2,1784.6z M2216.6,1779.4l-13.6-63       c4.2-0.9,8.4-1.8,12.6-2.8l14.2,62.9C2225.4,1777.4,2221,1778.4,2216.6,1779.4z M1585.7,1779.1c-4.4-1-8.8-1.9-13.2-2.9       l14.2-62.9c4.2,1,8.4,1.9,12.6,2.8L1585.7,1779.1z M2243,1773.4l-14.8-62.8c4.2-1,8.4-2,12.6-3l15.4,62.6       C2251.8,1771.3,2247.4,1772.4,2243,1773.4z M1559.3,1773.1c-4.4-1-8.8-2.1-13.2-3.2l15.5-62.6c4.2,1,8.4,2,12.6,3       L1559.3,1773.1z M2269.3,1766.9l-16-62.5c4.2-1.1,8.3-2.2,12.5-3.3l16.6,62.3C2278.1,1764.6,2273.7,1765.8,2269.3,1766.9z        M1533,1766.6c-4.4-1.1-8.7-2.3-13.1-3.4l16.7-62.3c4.2,1.1,8.3,2.2,12.5,3.3L1533,1766.6z M2295.5,1759.9l-17.2-62.2       c4.2-1.2,8.3-2.3,12.4-3.5l17.8,62C2304.2,1757.5,2299.8,1758.7,2295.5,1759.9z M1506.8,1759.6c-4.4-1.2-8.7-2.5-13-3.7       l17.9-62c4.1,1.2,8.3,2.4,12.4,3.5L1506.8,1759.6z M2321.5,1752.4l-18.5-61.8c4.1-1.2,8.3-2.5,12.4-3.8l19.1,61.6       C2330.2,1749.8,2325.9,1751.1,2321.5,1752.4z M1480.7,1752.1c-4.3-1.3-8.6-2.6-13-4l19.1-61.6c4.1,1.3,8.2,2.5,12.3,3.8       L1480.7,1752.1z M2347.4,1744.4l-19.7-61.4c4.1-1.3,8.2-2.7,12.3-4l20.3,61.2C2356,1741.7,2351.7,1743.1,2347.4,1744.4z        M1454.9,1744c-4.3-1.4-8.6-2.8-12.9-4.2l20.4-61.2c4.1,1.4,8.2,2.7,12.3,4L1454.9,1744z M2373.2,1735.9l-21-61       c4.1-1.4,8.2-2.8,12.2-4.3l21.6,60.8C2381.8,1732.9,2377.5,1734.4,2373.2,1735.9z M1429.1,1735.4c-4.2-1.5-8.5-3-12.8-4.5       l21.6-60.8c4.1,1.4,8.2,2.9,12.2,4.3L1429.1,1735.4z M2398.7,1726.8l-22.2-60.6c4-1.5,8.1-3,12.1-4.5l22.8,60.3       C2407.2,1723.7,2402.9,1725.3,2398.7,1726.8z M1403.6,1726.3c-4.2-1.6-8.5-3.2-12.7-4.8l22.9-60.3c4,1.5,8.1,3,12.1,4.5       L1403.6,1726.3z M2424.1,1717.2l-23.5-60.1c4-1.6,8-3.2,12-4.8l24.1,59.8C2432.6,1713.9,2428.3,1715.5,2424.1,1717.2z        M1378.2,1716.7c-4.2-1.7-8.5-3.3-12.6-5l24.2-59.8c3.9,1.6,8,3.2,12,4.8L1378.2,1716.7z M2449.3,1707l-24.8-59.5       c4-1.6,8-3.3,11.9-5l25.4,59.3C2457.7,1703.5,2453.5,1705.3,2449.3,1707z M1353,1706.5c-4.2-1.8-8.4-3.5-12.5-5.3l25.5-59.2       c3.9,1.7,7.9,3.4,11.9,5L1353,1706.5z M2474.3,1696.3l-26.1-59c3.9-1.7,7.9-3.5,11.8-5.3l26.7,58.7       C2482.6,1692.6,2478.4,1694.5,2474.3,1696.3z M1328,1695.8c-4.1-1.8-8.3-3.7-12.4-5.6l26.8-58.7c3.9,1.8,7.8,3.5,11.7,5.3       L1328,1695.8z M2499,1685.1l-27.4-58.4c3.8-1.8,7.8-3.7,11.6-5.5l28,58.1C2507.2,1681.2,2503.1,1683.2,2499,1685.1z        M1303.3,1684.5c-4.1-1.9-8.2-3.9-12.3-5.9l28.1-58.1c3.8,1.8,7.7,3.7,11.6,5.5L1303.3,1684.5z M2523.5,1673.2l-28.7-57.8       c3.8-1.9,7.7-3.9,11.5-5.8l29.4,57.4C2531.7,1669.2,2527.6,1671.2,2523.5,1673.2z M1278.8,1672.7c-4-2-8.1-4.1-12.2-6.1       l29.4-57.4c3.8,2,7.7,3.9,11.5,5.8L1278.8,1672.7z M2547.7,1660.9l-30-57.1c3.7-2,7.5-4,11.3-6l30.7,56.7       C2555.7,1656.6,2551.7,1658.8,2547.7,1660.9z M1254.6,1660.2c-4-2.1-8.1-4.3-12-6.4l30.8-56.7c3.7,2,7.5,4.1,11.3,6.1       L1254.6,1660.2z M2571.7,1647.9l-31.4-56.4c3.7-2.1,7.5-4.2,11.2-6.3l32,56C2579.6,1643.5,2575.6,1645.7,2571.7,1647.9z        M1230.7,1647.3c-4-2.2-8-4.5-11.9-6.7l32.1-55.9c3.7,2.1,7.4,4.2,11.2,6.3L1230.7,1647.3z M2595.3,1634.4l-32.7-55.6       c3.7-2.2,7.4-4.4,11-6.6l33.4,55.2C2603.2,1629.7,2599.2,1632.1,2595.3,1634.4z M1207.1,1633.7c-3.9-2.3-7.8-4.6-11.7-7       l33.5-55.1c3.7,2.2,7.4,4.4,11,6.6L1207.1,1633.7z M2618.7,1620.3l-34.1-54.8c3.6-2.3,7.3-4.6,10.8-6.8l34.8,54.3       C2626.4,1615.4,2622.5,1617.8,2618.7,1620.3z M1183.8,1619.6c-3.8-2.4-7.7-4.9-11.5-7.3l34.8-54.3c3.6,2.3,7.2,4.6,10.8,6.9       L1183.8,1619.6z M2641.6,1605.5l-35.5-53.9c3.6-2.3,7.1-4.7,10.7-7.1l36.2,53.4C2649.2,1600.5,2645.4,1603,2641.6,1605.5z        M1160.8,1604.8c-3.8-2.5-7.6-5.1-11.3-7.6l36.2-53.4c3.5,2.4,7.1,4.8,10.6,7.1L1160.8,1604.8z M2664.2,1590.2l-36.9-52.9       c3.5-2.4,7-4.9,10.5-7.4l37.6,52.4C2671.7,1585,2668,1587.6,2664.2,1590.2z M1138.2,1589.5c-3.7-2.6-7.5-5.3-11.1-7.9       l37.6-52.4c3.4,2.5,7,5,10.5,7.4L1138.2,1589.5z M2686.5,1574.3l-38.3-51.9c3.4-2.5,6.9-5.1,10.2-7.7l39,51.4       C2693.8,1568.9,2690.1,1571.6,2686.5,1574.3z M1116,1573.5c-3.7-2.7-7.4-5.5-10.9-8.2l39-51.3c3.3,2.5,6.8,5.1,10.2,7.7       L1116,1573.5z M2708.2,1557.8l-39.7-50.8c3.4-2.6,6.7-5.3,10-7.9l40.4,50.3C2715.5,1552.1,2711.8,1555,2708.2,1557.8z        M1094.2,1557c-3.6-2.8-7.2-5.7-10.7-8.5l40.5-50.2c3.3,2.6,6.7,5.3,10,8L1094.2,1557z M2729.6,1540.6l-41.1-49.7       c3.3-2.7,6.6-5.5,9.8-8.2l41.8,49.1C2736.6,1534.8,2733.1,1537.7,2729.6,1540.6z M1072.9,1539.8c-3.5-2.9-7-5.9-10.5-8.8       l41.9-49c3.2,2.8,6.5,5.5,9.8,8.2L1072.9,1539.8z M2750.4,1522.9l-42.5-48.5c3.2-2.8,6.4-5.6,9.5-8.5l43.3,47.8       C2757.3,1516.8,2753.9,1519.9,2750.4,1522.9z M1052.1,1522c-3.4-3-6.9-6.1-10.2-9.1l43.3-47.8c3.1,2.8,6.3,5.7,9.5,8.5       L1052.1,1522z M2770.8,1504.5l-44-47.2c3.1-2.9,6.2-5.8,9.2-8.8l44.7,46.5C2777.5,1498.2,2774.1,1501.4,2770.8,1504.5z        M1031.8,1503.5c-3.3-3.1-6.7-6.3-9.9-9.5l44.8-46.4c3,2.9,6.1,5.9,9.2,8.8L1031.8,1503.5z M2790.6,1485.4l-45.4-45.8       c3-3,6-6,9-9l46.2,45.1C2797.1,1478.9,2793.8,1482.2,2790.6,1485.4z M1012,1484.5c-3.2-3.2-6.5-6.5-9.7-9.8l46.2-45       c2.9,3,6,6.1,8.9,9L1012,1484.5z M2809.8,1465.7l-46.9-44.3c2.9-3.1,5.8-6.2,8.6-9.3l47.6,43.5       C2816.1,1459,2812.9,1462.4,2809.8,1465.7z M992.8,1464.8c-3.1-3.3-6.3-6.7-9.4-10.1l47.7-43.4c2.8,3.1,5.7,6.2,8.6,9.3       L992.8,1464.8z M2828.4,1445.4l-48.3-42.7c2.8-3.2,5.6-6.4,8.3-9.6l49,41.9C2834.4,1438.5,2831.4,1442,2828.4,1445.4z        M974.3,1444.4c-3-3.4-6.1-6.9-9-10.4l49.1-41.8c2.7,3.2,5.5,6.4,8.3,9.6L974.3,1444.4z M2846.3,1424.5l-49.8-41       c2.7-3.2,5.3-6.5,8-9.8l50.5,40.2C2852.1,1417.3,2849.2,1420.9,2846.3,1424.5z M956.4,1423.4c-2.9-3.6-5.8-7.2-8.7-10.7       l50.5-40.1c2.6,3.3,5.3,6.6,8,9.9L956.4,1423.4z M2863.4,1402.9l-51.2-39.3c2.6-3.3,5.1-6.7,7.6-10.1l51.9,38.3       C2869,1395.5,2866.2,1399.2,2863.4,1402.9z M939.3,1401.8c-2.8-3.7-5.6-7.4-8.3-11l51.9-38.2c2.5,3.4,5,6.8,7.6,10.1       L939.3,1401.8z M2879.9,1380.6l-52.6-37.4c2.4-3.4,4.9-6.9,7.2-10.4l53.3,36.4C2885.2,1373.1,2882.5,1376.9,2879.9,1380.6z        M922.9,1379.5c-2.7-3.8-5.3-7.6-7.9-11.4l53.3-36.3c2.4,3.5,4.8,6.9,7.2,10.4L922.9,1379.5z M2895.5,1357.8l-53.9-35.4       c2.3-3.5,4.6-7.1,6.8-10.6l54.6,34.3C2900.5,1350,2898,1353.9,2895.5,1357.8z M907.3,1356.7c-2.5-3.9-5-7.8-7.5-11.7l54.7-34.2       c2.2,3.5,4.5,7.1,6.8,10.6L907.3,1356.7z M2910.2,1334.3l-55.3-33.2c2.1-3.6,4.3-7.2,6.4-10.8l55.9,32.1       C2914.9,1326.4,2912.6,1330.4,2910.2,1334.3z M892.6,1333.2c-2.4-4-4.7-8-7-12l56-32c2.1,3.6,4.2,7.3,6.4,10.9L892.6,1333.2z        M2924,1310.3l-56.6-31c2-3.7,4-7.4,5.9-11.1l57.2,29.8C2928.4,1302.1,2926.2,1306.2,2924,1310.3z M878.8,1309.1       c-2.2-4.1-4.4-8.2-6.5-12.3l57.2-29.7c1.9,3.7,3.9,7.4,5.9,11.1L878.8,1309.1z M2936.9,1285.6l-57.8-28.6       c1.9-3.8,3.7-7.6,5.5-11.3l58.4,27.4C2941,1277.3,2938.9,1281.5,2936.9,1285.6z M866.1,1284.4c-2-4.1-4.1-8.4-6-12.5l58.4-27.3       c1.8,3.8,3.6,7.6,5.4,11.3L866.1,1284.4z M2948.7,1260.4l-59-26.2c1.7-3.8,3.4-7.7,5-11.6l59.5,24.9       C2952.4,1251.9,2950.6,1256.2,2948.7,1260.4z M854.3,1259.2c-1.9-4.2-3.7-8.6-5.5-12.8l59.6-24.8c1.6,3.8,3.2,7.7,4.9,11.5       L854.3,1259.2z M2959.5,1234.7l-60-23.6c1.5-3.9,3-7.8,4.5-11.7l60.5,22.2C2962.8,1226,2961.2,1230.4,2959.5,1234.7z        M843.6,1233.5c-1.7-4.3-3.3-8.7-4.9-13l60.6-22.1c1.4,3.9,2.9,7.8,4.4,11.7L843.6,1233.5z M2969.1,1208.4l-61-20.9       c1.3-3.9,2.7-7.9,3.9-11.9l61.5,19.5C2972.1,1199.6,2970.6,1204,2969.1,1208.4z M834,1207.3c-1.5-4.4-2.9-8.9-4.3-13.3       l61.5-19.4c1.2,4,2.6,7.9,3.9,11.9L834,1207.3z M2977.5,1181.8l-61.9-18.1c1.2-4,2.3-8,3.4-12l62.3,16.6       C2980.1,1172.8,2978.8,1177.4,2977.5,1181.8z M825.7,1180.7c-1.3-4.5-2.5-9-3.7-13.4l62.3-16.5c1.1,4,2.2,8,3.3,12       L825.7,1180.7z M2984.7,1154.9l-62.7-15.2c1-4,1.9-8.1,2.8-12.1l63,13.7C2986.9,1145.8,2985.8,1150.4,2984.7,1154.9z        M818.5,1153.8c-1.1-4.5-2.1-9.1-3.1-13.6l63-13.6c0.9,4,1.8,8.1,2.8,12.1L818.5,1153.8z M2990.7,1127.6l-63.3-12.3       c0.8-4.1,1.5-8.2,2.2-12.3l63.6,10.8C2992.4,1118.5,2991.5,1123.1,2990.7,1127.6z M812.6,1126.4c-0.9-4.6-1.7-9.2-2.5-13.8       l63.6-10.6c0.7,4.1,1.4,8.2,2.2,12.3L812.6,1126.4z M2995.3,1100.1l-63.8-9.3c0.6-4.1,1.1-8.2,1.6-12.4l64,7.8       C2996.6,1090.8,2996,1095.5,2995.3,1100.1z M808,1098.8c-0.7-4.6-1.3-9.3-1.8-13.9l64-7.6c0.5,4.1,1,8.3,1.6,12.4L808,1098.8z        M2998.7,1072.3l-64.2-6.2c0.4-4.1,0.8-8.3,1.1-12.4l64.3,4.7C2999.5,1063,2999.1,1067.7,2998.7,1072.3z M804.7,1071       c-0.4-4.6-0.8-9.4-1.2-14l64.3-4.5c0.3,4.1,0.6,8.3,1,12.5L804.7,1071z M3000.7,1044.4l-64.4-3.2c0.2-4.1,0.4-8.3,0.5-12.4       l64.5,1.6C3001.1,1035,3000.9,1039.7,3000.7,1044.4z M802.7,1043c-0.2-4.6-0.4-9.3-0.5-14l64.5-1.5c0.1,4.1,0.2,8.3,0.4,12.5       L802.7,1043z M3001.4,1016.4h-64.5v-0.9c0-4.1,0-8.3-0.1-12.5l64.5-1.5c0.1,4.6,0.2,9.4,0.2,14L3001.4,1016.4z M866.6,1015.1       h-64.5c0-4.6,0.1-9.4,0.2-14l64.5,1.6C866.7,1006.8,866.6,1011,866.6,1015.1z M2936.3,990.6c-0.2-4.1-0.4-8.3-0.7-12.4       l64.3-4.6c0.3,4.6,0.6,9.3,0.8,14L2936.3,990.6z M867.2,990.2l-64.4-3.1c0.2-4.6,0.5-9.3,0.8-14l64.3,4.6       C867.7,981.9,867.4,986.1,867.2,990.2z M2934.6,965.7c-0.4-4.1-0.8-8.3-1.3-12.4l64-7.7c0.6,4.6,1.1,9.3,1.5,14L2934.6,965.7z        M869,965.3l-64.2-6.2c0.4-4.6,0.9-9.3,1.5-13.9l64,7.7C869.8,957.1,869.4,961.2,869,965.3z M2931.6,940.9       c-0.6-4.1-1.2-8.2-1.9-12.3l63.6-10.7c0.8,4.6,1.5,9.2,2.2,13.8L2931.6,940.9z M872,940.6l-63.8-9.2c0.7-4.6,1.4-9.2,2.2-13.8       l63.6,10.7C873.2,932.4,872.6,936.5,872,940.6z M2927.5,916.3c-0.8-4.1-1.6-8.2-2.5-12.2l63-13.7c1,4.5,1.9,9.1,2.8,13.7       L2927.5,916.3z M876.1,916l-63.3-12.2c0.9-4.5,1.8-9.1,2.8-13.6l63,13.7C877.7,907.9,876.9,912,876.1,916z M2922.2,891.9       c-1-4-2-8.1-3.1-12.1l62.3-16.6c1.2,4.5,2.3,9,3.4,13.5L2922.2,891.9z M881.4,891.7l-62.7-15.2c1.1-4.5,2.2-9,3.4-13.5       l62.3,16.6C883.4,883.7,882.4,887.7,881.4,891.7z M2915.8,867.9c-1.2-4-2.4-8-3.6-11.9l61.5-19.4c1.4,4.4,2.7,8.9,4,13.3       L2915.8,867.9z M887.8,867.7l-61.9-18c1.3-4.4,2.7-8.9,4.1-13.4l61.5,19.4C890.2,859.7,889,863.7,887.8,867.7z M2908.3,844.1       c-1.3-3.9-2.7-7.9-4.2-11.8l60.6-22.1c1.6,4.4,3.2,8.8,4.6,13.2L2908.3,844.1z M895.3,843.8l-61-20.8c1.5-4.4,3.1-8.8,4.7-13.2       l60.6,22.2C898.1,835.9,896.7,839.9,895.3,843.8z M2899.7,820.6c-1.5-3.9-3.1-7.8-4.7-11.6l59.5-24.8c1.8,4.3,3.5,8.6,5.2,12.9       L2899.7,820.6z M903.9,820.3l-60.1-23.5c1.7-4.3,3.4-8.7,5.2-13l59.5,24.8C907,812.5,905.5,816.4,903.9,820.3z M2890.1,797.5       c-1.7-3.8-3.4-7.6-5.2-11.4l58.4-27.3c2,4.2,3.9,8.5,5.8,12.7L2890.1,797.5z M913.6,797.1l-59-26.1c1.9-4.2,3.8-8.5,5.8-12.7       l58.4,27.4C917,789.5,915.3,793.3,913.6,797.1z M2879.4,774.7c-1.8-3.7-3.8-7.5-5.7-11.2l57.2-29.8c2.1,4.1,4.2,8.3,6.3,12.4       L2879.4,774.7z M924.3,774.4l-57.8-28.6c2-4.1,4.2-8.3,6.3-12.4l57.2,29.8C928,766.9,926.1,770.7,924.3,774.4z M2867.9,752.5       c-2-3.6-4.1-7.3-6.1-11l56-32.1c2.3,4,4.6,8.1,6.8,12.1L2867.9,752.5z M935.9,752.1l-56.6-31c2.2-4,4.5-8.1,6.8-12.1l55.9,32.1       C939.9,744.7,937.9,748.4,935.9,752.1z M2855.4,730.6c-2.1-3.6-4.4-7.2-6.6-10.7l54.7-34.2c2.4,3.9,4.9,7.9,7.2,11.8       L2855.4,730.6z M948.4,730.3l-55.3-33.2c2.4-3.9,4.8-7.9,7.3-11.8l54.6,34.3C952.7,723.1,950.5,726.7,948.4,730.3z M2842,709.3       c-2.3-3.5-4.6-7-7-10.5l53.3-36.3c2.6,3.8,5.2,7.7,7.7,11.5L2842,709.3z M961.8,708.9l-54-35.3c2.5-3.8,5.1-7.7,7.7-11.5       l53.3,36.3C966.4,701.9,964.1,705.4,961.8,708.9z M2827.8,688.4c-2.4-3.4-4.9-6.9-7.4-10.2l51.9-38.3c2.7,3.7,5.5,7.5,8.1,11.2       L2827.8,688.4z M976,688.1l-52.6-37.3c2.6-3.7,5.4-7.5,8.1-11.2l51.9,38.3C980.9,681.2,978.4,684.7,976,688.1z M2812.8,668       c-2.5-3.3-5.2-6.7-7.8-10l50.5-40.1c2.9,3.6,5.7,7.3,8.5,10.9L2812.8,668z M991,667.7l-51.2-39.2c2.8-3.6,5.6-7.3,8.5-10.9       l50.5,40.1C996.2,661,993.6,664.4,991,667.7z M2797,648.2c-2.7-3.2-5.4-6.5-8.1-9.7l49.1-41.8c3,3.5,6,7.1,8.9,10.6L2797,648.2       z M1006.8,647.9l-49.8-41c2.9-3.5,5.9-7.1,8.9-10.6l49.1,41.9C1012.2,641.4,1009.4,644.7,1006.8,647.9z M2780.6,628.9       c-2.8-3.2-5.6-6.3-8.5-9.5l47.7-43.5c3.1,3.4,6.2,6.8,9.2,10.2L2780.6,628.9z M1023.2,628.6l-48.3-42.7c3-3.4,6.1-6.9,9.2-10.2       l47.6,43.5C1028.9,622.3,1026,625.5,1023.2,628.6z M2763.5,610.2c-2.9-3.1-5.8-6.1-8.8-9.2l46.2-45c3.2,3.3,6.4,6.6,9.5,9.9       L2763.5,610.2z M1040.3,609.9l-46.9-44.3c3.1-3.3,6.3-6.7,9.5-9.9l46.2,45C1046.2,603.7,1043.2,606.8,1040.3,609.9z        M2745.7,592c-3-3-6-6-9.1-8.9l44.8-46.4c3.3,3.2,6.6,6.4,9.8,9.6L2745.7,592z M1058.1,591.7l-45.5-45.8       c3.2-3.2,6.5-6.4,9.8-9.6l44.7,46.5C1064.1,585.7,1061.1,588.7,1058.1,591.7z M2727.4,574.3c-3.1-2.9-6.2-5.8-9.4-8.6       l43.3-47.8c3.4,3.1,6.8,6.2,10.1,9.3L2727.4,574.3z M1076.4,574l-44-47.1c3.3-3.1,6.7-6.2,10.1-9.3l43.3,47.8       C1082.7,568.2,1079.5,571.1,1076.4,574z M2708.5,557.2c-3.2-2.8-6.4-5.6-9.6-8.3l41.9-49.1c3.4,2.9,6.9,6,10.4,9L2708.5,557.2z        M1095.3,556.9l-42.6-48.5c3.4-3,6.9-6,10.4-9l41.9,49.1C1101.7,551.3,1098.5,554.1,1095.3,556.9z M2689.1,540.6       c-3.2-2.7-6.6-5.4-9.9-8.1l40.4-50.2c3.6,2.9,7.1,5.8,10.6,8.7L2689.1,540.6z M1114.7,540.3l-41.1-49.7       c3.5-2.9,7.1-5.8,10.6-8.7l40.4,50.3C1121.3,534.9,1118,537.6,1114.7,540.3z M2669.2,524.6c-3.3-2.6-6.7-5.2-10.1-7.8l39-51.4       c3.6,2.8,7.3,5.6,10.8,8.4L2669.2,524.6z M1134.6,524.3l-39.7-50.8c3.6-2.8,7.2-5.6,10.8-8.3l39,51.4       C1141.4,519.1,1138,521.7,1134.6,524.3z M2648.9,509.1c-3.4-2.5-6.9-5-10.3-7.5l37.6-52.4c3.7,2.7,7.4,5.4,11,8L2648.9,509.1z        M1155,508.9l-38.3-51.9c3.7-2.7,7.4-5.4,11.1-8l37.6,52.4C1161.9,503.8,1158.5,506.3,1155,508.9z M2628.1,494.2       c-3.5-2.4-7-4.9-10.5-7.3l36.2-53.4c3.8,2.5,7.5,5.2,11.3,7.7L2628.1,494.2z M1175.8,493.9l-36.9-52.9       c3.7-2.6,7.5-5.2,11.2-7.7l36.2,53.4C1182.8,489.1,1179.3,491.5,1175.8,493.9z M2606.9,479.8c-3.6-2.3-7.2-4.7-10.8-7       l34.8-54.3c3.8,2.4,7.6,4.9,11.4,7.4L2606.9,479.8z M1197,479.6l-35.5-53.8c3.8-2.5,7.6-5,11.4-7.4l34.8,54.3       C1204.2,474.9,1200.5,477.2,1197,479.6z M2585.3,465.9c-3.6-2.3-7.3-4.5-10.9-6.7l33.4-55.2c3.9,2.3,7.8,4.7,11.6,7.1       L2585.3,465.9z M1218.6,465.7l-34.1-54.7c3.9-2.4,7.8-4.8,11.6-7.1l33.4,55.2C1225.9,461.2,1222.2,463.5,1218.6,465.7z        M2563.3,452.6c-3.6-2.1-7.3-4.3-11.1-6.5l32.1-55.9c4,2.3,8,4.6,11.8,6.8L2563.3,452.6z M1240.6,452.4l-32.7-55.6       c3.9-2.3,7.9-4.6,11.8-6.8l32.1,56C1248,448.1,1244.2,450.3,1240.6,452.4z M2541.1,439.9c-3.8-2.1-7.6-4.2-11.3-6.2l30.7-56.7       c3.9,2.1,7.9,4.3,11.9,6.6L2541.1,439.9z M1262.8,439.7l-31.4-56.3c3.9-2.2,7.9-4.4,11.9-6.6l30.7,56.7       C1270.3,435.5,1266.5,437.6,1262.8,439.7z M2518.5,427.6c-3.8-2-7.6-4-11.4-5.9l29.4-57.4c4,2,8.1,4.2,12.1,6.3L2518.5,427.6z        M1285.4,427.4l-30-57.1c4-2.1,8-4.2,12.1-6.3l29.4,57.4C1293,423.5,1289.2,425.4,1285.4,427.4z M2495.6,415.9       c-3.8-1.9-7.7-3.8-11.5-5.7l28.1-58.1c4.1,2,8.2,4,12.2,6L2495.6,415.9z M1308.3,415.7l-28.7-57.8c4-2,8.1-4,12.2-6l28,58.1       C1316,411.9,1312.1,413.8,1308.3,415.7z M2472.4,404.7c-3.9-1.8-7.8-3.6-11.7-5.4l26.7-58.7c4.1,1.9,8.2,3.8,12.3,5.7       L2472.4,404.7z M1331.5,404.5l-27.4-58.4c4.1-1.9,8.2-3.8,12.3-5.7l26.7,58.7C1339.3,400.9,1335.3,402.7,1331.5,404.5z        M2449,394c-3.9-1.7-7.9-3.5-11.8-5.2l25.5-59.3c4.2,1.8,8.4,3.6,12.4,5.4L2449,394z M1354.9,393.9l-26.1-59       c4.1-1.8,8.3-3.6,12.5-5.4l25.4,59.3C1362.8,390.4,1358.8,392.1,1354.9,393.9z M2425.3,383.9c-3.9-1.6-7.9-3.3-11.9-4.9       l24.2-59.8c4.2,1.7,8.4,3.4,12.6,5.2L2425.3,383.9z M1378.6,383.7l-24.8-59.5c4.1-1.7,8.4-3.5,12.6-5.2l24.1,59.8       C1386.5,380.4,1382.5,382.1,1378.6,383.7z M2401.4,374.2c-3.9-1.5-8-3.1-12-4.6l22.9-60.3c4.2,1.6,8.5,3.3,12.7,4.9       L2401.4,374.2z M1402.5,374.1L1379,314c4.2-1.6,8.5-3.3,12.7-4.9l22.9,60.3C1410.5,370.9,1406.5,372.5,1402.5,374.1z        M2377.3,365.1c-4-1.5-8.1-3-12.1-4.4l21.6-60.8c4.2,1.5,8.5,3.1,12.8,4.6L2377.3,365.1z M1426.6,364.9l-22.2-60.5       c4.2-1.5,8.5-3.1,12.8-4.6l21.6,60.8C1434.7,362,1430.6,363.4,1426.6,364.9z M2353,356.4c-4.1-1.4-8.2-2.8-12.2-4.1l20.4-61.2       c4.3,1.4,8.6,2.9,12.8,4.3L2353,356.4z M1450.9,356.3l-21-61c4.3-1.5,8.6-2.9,12.9-4.3l20.3,61.2       C1459.1,353.5,1455,354.9,1450.9,356.3z M2328.5,348.3c-4.1-1.3-8.2-2.6-12.3-3.9l19.1-61.6c4.3,1.3,8.6,2.7,12.9,4.1       L2328.5,348.3z M1475.4,348.1l-19.7-61.4c4.3-1.4,8.6-2.7,12.9-4.1l19.1,61.6C1483.6,345.5,1479.5,346.8,1475.4,348.1z        M2303.9,340.6c-4.1-1.2-8.2-2.4-12.4-3.6l17.9-62c4.3,1.3,8.7,2.5,13,3.8L2303.9,340.6z M1500.1,340.5l-18.5-61.8       c4.3-1.3,8.7-2.6,13-3.8l17.9,62C1508.3,338,1504.2,339.3,1500.1,340.5z M2279.1,333.4c-4.1-1.2-8.3-2.3-12.5-3.4l16.7-62.3       c4.4,1.2,8.7,2.4,13.1,3.6L2279.1,333.4z M1524.9,333.3l-17.2-62.2c4.3-1.2,8.7-2.4,13.1-3.6l16.6,62.3       C1533.2,331.1,1529,332.2,1524.9,333.3z M2254.1,326.8c-4.2-1.1-8.3-2.1-12.5-3.2L2257,261c4.4,1.1,8.8,2.2,13.1,3.3       L2254.1,326.8z M1549.8,326.7l-16-62.5c4.4-1.1,8.7-2.2,13.1-3.3l15.4,62.6C1558.2,324.6,1554,325.6,1549.8,326.7z M2229,320.6       c-4.2-1-8.4-2-12.6-2.9l14.2-62.9c4.4,1,8.8,2,13.2,3.1L2229,320.6z M1574.9,320.5l-14.8-62.8c4.4-1,8.8-2.1,13.2-3l14.2,62.9       C1583.3,318.5,1579.1,319.5,1574.9,320.5z M2203.8,314.9c-4.2-0.9-8.4-1.8-12.6-2.7l13-63.2c4.4,0.9,8.8,1.8,13.2,2.8       L2203.8,314.9z M1600.1,314.8l-13.6-63c4.4-1,8.8-1.9,13.2-2.8l13,63.2C1608.6,313,1604.3,313.9,1600.1,314.8z M2178.5,309.7       c-4.2-0.8-8.5-1.6-12.7-2.4l11.8-63.4c4.4,0.8,8.9,1.7,13.3,2.5L2178.5,309.7z M1625.5,309.6l-12.4-63.3       c4.4-0.9,8.9-1.7,13.3-2.5l11.8,63.4C1633.9,307.9,1629.7,308.8,1625.5,309.6z M2153.1,304.9c-4.2-0.8-8.5-1.5-12.7-2.2       l10.7-63.6c4.5,0.7,8.9,1.5,13.3,2.3L2153.1,304.9z M1650.9,304.8l-11.2-63.5c4.4-0.8,8.9-1.5,13.3-2.3l10.6,63.6       C1659.4,303.4,1655.1,304.1,1650.9,304.8z M2127.6,300.6c-4.3-0.7-8.5-1.3-12.8-2l9.5-63.8c4.5,0.7,8.9,1.3,13.4,2       L2127.6,300.6z M1676.4,300.6l-10-63.7c4.4-0.7,8.9-1.4,13.4-2l9.5,63.8C1684.9,299.3,1680.6,299.9,1676.4,300.6z M2102,296.8       c-4.3-0.6-8.5-1.2-12.8-1.7l8.3-64c4.5,0.6,8.9,1.2,13.4,1.8L2102,296.8z M1702,296.8l-8.9-63.9c4.5-0.6,8.9-1.2,13.4-1.8       l8.3,64C1710.5,295.6,1706.2,296.2,1702,296.8z M2076.3,293.5c-4.3-0.5-8.6-1-12.8-1.5l7.1-64.1c4.5,0.5,9,1,13.4,1.6       L2076.3,293.5z M1727.6,293.5l-7.7-64c4.5-0.5,9-1.1,13.4-1.6l7.1,64.1C1736.2,292.5,1731.9,292.9,1727.6,293.5z M2050.6,290.7       c-4.3-0.4-8.6-0.9-12.9-1.3l6-64.2c4.5,0.4,9,0.9,13.5,1.3L2050.6,290.7z M1753.4,290.6l-6.5-64.2c4.5-0.5,9-0.9,13.5-1.3       l6,64.2C1761.9,289.8,1757.6,290.2,1753.4,290.6z M2024.8,288.3c-4.3-0.4-8.6-0.7-12.9-1l4.8-64.3c4.5,0.3,9,0.7,13.5,1.1       L2024.8,288.3z M1779.1,288.2l-5.4-64.3c4.5-0.4,9-0.7,13.5-1.1l4.8,64.3C1787.7,287.5,1783.4,287.9,1779.1,288.2z M1999,286.3       c-4.3-0.3-8.6-0.5-12.9-0.8l3.7-64.4c4.5,0.3,9,0.5,13.5,0.8L1999,286.3z M1804.9,286.3l-4.2-64.4c4.5-0.3,9-0.6,13.5-0.8       l3.7,64.4C1813.6,285.7,1809.2,286,1804.9,286.3z M1973.1,284.8c-4.3-0.2-8.6-0.4-12.9-0.6l2.5-64.4c4.5,0.2,9,0.4,13.5,0.6       L1973.1,284.8z M1830.8,284.8l-3.1-64.4c4.5-0.2,9-0.4,13.5-0.6l2.5,64.4C1839.4,284.4,1835.1,284.6,1830.8,284.8z        M1947.3,283.8c-4.3-0.1-8.6-0.2-12.9-0.3l1.4-64.5c4.5,0.1,9,0.2,13.5,0.4L1947.3,283.8z M1856.7,283.8l-2-64.5       c4.5-0.1,9-0.3,13.5-0.4l1.4,64.5C1865.3,283.6,1861,283.7,1856.7,283.8z M1921.4,283.2c-4.3-0.1-8.6-0.1-12.9-0.1l0.3-64.5       c4.5,0,9,0.1,13.5,0.1L1921.4,283.2z M1882.6,283.2l-0.8-64.5c4.5-0.1,9-0.1,13.5-0.1l0.3,64.5       C1891.2,283.1,1886.9,283.2,1882.6,283.2z"
   id="path12" />
				</g>
				<g
   id="g18">
					
						<rect
   x="924.6"
   y="1007.9"
   transform="matrix(0.9345 -0.3559 0.3559 0.9345 -236.2941 746.5242)"
   class="st0"
   width="1972.3"
   height="15"
   id="rect16" />
				</g>
				<g
   id="g22">
					
						<rect
   x="1903.1"
   y="29.5"
   transform="matrix(0.3558 -0.9346 0.9346 0.3558 281.6758 2439.7754)"
   class="st0"
   width="15"
   height="1972.2"
   id="rect20" />
				</g>
				<g
   id="g26">
					<path
   class="st1"
   d="M989.1,1605c-131.6,0-238.6-107-238.6-238.6s107-238.6,238.6-238.6s238.6,107,238.6,238.6       S1120.7,1605,989.1,1605z"
   id="path24" />
				</g>
				<g
   id="g30">
					<circle
   class="st1"
   cx="989.1"
   cy="664.6"
   r="238.6"
   id="circle28" />
				</g>
				<g
   id="g34">
					<circle
   class="st1"
   cx="2832.3"
   cy="664.6"
   r="238.6"
   id="circle32" />
				</g>
				<g
   id="g38">
					<path
   class="st1"
   d="M2832.3,1605c-131.6,0-238.6-107-238.6-238.6s107-238.6,238.6-238.6s238.6,107,238.6,238.6       S2963.9,1605,2832.3,1605z"
   id="path36" />
				</g>
			</g>
		</g>
		<g
   id="g242">
			<g
   id="g238">
				<g
   id="g236">
					<g
   id="g196">
						<g
   id="g46">
							<path
   class="st2"
   d="M1754.6,1598.2c0.7-3.4,2.1-6.6,3.9-9.5s4-5.4,6.4-7.5c-1.9,1.7-3.6,3.6-5.1,5.6c1.1-1.5,2.3-2.8,3.6-4         c1.3-1.2,2.7-2.3,4.4-3.2c-0.4,0.4-1.1,1-1.7,1.5s-1.2,1.1-1.3,1.4c-3.4,3-6.1,6.7-8.1,10.8c-2,4.1-3.2,8.6-3.4,13.1         c-0.5-1.8-0.2-3.3,0.1-4.6C1753.8,1600.5,1754.3,1599.4,1754.6,1598.2"
   id="path44" />
						</g>
						<g
   id="g50">
							<path
   class="st2"
   d="M1777.1,1575.6c-0.9,0.3-1.7,0.6-2.5,0.9C1775.4,1576.1,1776.3,1575.8,1777.1,1575.6"
   id="path48" />
						</g>
						<g
   id="g54">
							<path
   class="st2"
   d="M1787.6,1635c0.9-0.1,1.9-0.2,2.7-0.4C1789.5,1634.8,1788.6,1634.9,1787.6,1635"
   id="path52" />
						</g>
						<g
   id="g58">
							<path
   class="st2"
   d="M1756.1,1609.9l0.4,1.5c0.6,3.9,1.9,7.7,4,11.3c-1.2-1.9-2.2-3.9-3-6.1         C1756.6,1614.4,1756.1,1612.2,1756.1,1609.9"
   id="path56" />
						</g>
						<g
   id="g62">
							<path
   class="st2"
   d="M1756.7,1605.7c0-3.9,1.1-7.9,3-11C1757.9,1597.8,1756.8,1601.7,1756.7,1605.7"
   id="path60" />
						</g>
						<g
   id="g66">
							<path
   class="st2"
   d="M1806.9,1618.4c-0.1,0-0.1-0.1-0.1-0.2s0-0.2,0-0.3c0.7-1.1,1.4-2.2,1.9-3.3c-0.1,0.3,0,0.6-0.2,1         c-0.3,0.6-0.6,1-0.9,1.3C1807.5,1617.2,1807.2,1617.6,1806.9,1618.4"
   id="path64" />
						</g>
						<g
   id="g70">
							<path
   class="st2"
   d="M1786.6,1635.1L1786.6,1635.1c-0.4,0.1-0.7,0.1-1,0.1h-0.1C1785.8,1635.1,1786.2,1635.1,1786.6,1635.1"
   id="path68" />
						</g>
						<g
   id="g74">
							<path
   class="st2"
   d="M1806,1619.7c-0.1-0.1-0.3-0.1-0.4-0.1c0.5-0.6,0.9-1.1,1.3-1.7c0,0.1,0,0.2,0,0.3         C1806.7,1618.6,1806.2,1619.2,1806,1619.7"
   id="path72" />
						</g>
						<g
   id="g78">
							<path
   class="st2"
   d="M1792.6,1628.1c-0.4,0.1-0.7,0.5-0.9,0.7c-1.2,0.1-2.3,0.1-3.7,0.1c-0.2,0.1-0.6,0.1-1,0.3         c-0.3-0.1-0.5-0.2-0.8-0.3c2.9,0,5.9-0.5,8.9-1.6C1794.3,1627.6,1793.5,1627.9,1792.6,1628.1"
   id="path76" />
						</g>
						<g
   id="g82">
							<path
   class="st2"
   d="M1779.1,1580.2c2.2-0.7,4.8-0.9,7.3-0.8s4.9,0.5,7.2,0.7c-2.5-1-5.8-1.6-8.5-1.7c-2.7-0.2-4.9,0-5.4-0.6         c-0.6-0.5,1.4-1.1,4.1-1.2c1.4,0,2.9,0,4.3,0.2c1.5,0.2,2.8,0.4,3.9,0.7c-0.6-0.3-0.6-0.3-1.1-0.5c0.6,0.2,1.1,0.5,1.7,0.5         c-0.6-0.3-1.4-0.6-2.2-0.8c-0.8-0.3-1.6-0.5-1.9-0.8c0.4-0.1,0.8-0.1,1.1-0.2c-1.5-0.7-3.9-1.1-6.3-1.2s-4.9,0.1-6.6,0.2         c4.2-0.4,8.8-0.4,13.3,0.5c4.6,0.9,9.1,2.6,13.2,5.4c4.1,2.7,7.7,6.4,10.2,10.8c2.5,4.3,4,9.3,4.2,14.2         c0.8,10.9-3.5,21.5-11.1,28.6c-0.7,0.6-2.1,1.6-3.7,2.5s-3.5,1.7-5.1,2.2c-5.5,2.2-11.6,3-17.6,2.4c-6.4-0.8-12.4-3.7-17.2-8         c-4.8-4.3-8.5-10-10.6-16.6c-0.4-1.3-0.5-3-0.2-3.4c0.1-0.2,0.3-0.2,0.6,0.3c0.3,0.5,0.6,1.4,1.2,2.9c2,4.9,4.9,9.5,8.7,13.3         c-0.4-0.1-0.9-0.6-1.5-1.2s-1.2-1.3-1.7-1.7c1.1,1.7,2.3,3.1,3.6,4.3c1.3,1.3,2.7,2.4,4.3,3.5c-2.2-1.4-4.2-3.1-6-5         c2.3,2.4,5,4.6,8.1,6.3c3.1,1.7,6.5,3,10,3.6c1.3,0.2,2.4,0.7,3.8,1.1c1.4,0.3,2.9,0.5,4.8-0.1c-4.7,0-9.4-1-13.7-2.8         c-4.3-1.9-8.2-4.6-11.5-7.9c0,0,0,0,0.1,0c-3-2.9-5.1-6.2-6.8-9.8c0.6,1.1,1.2,2.2,1.7,3.2c-2.6-5.2-4.1-10.9-4-16.6         c0.4,4,1.3,8,3,11.8c1.6,3.8,3.9,7.3,6.8,10.3s6.4,5.4,10.1,7c3.8,1.6,7.8,2.5,11.8,2.4c-2.2-0.4-4.7-0.6-7.2-1.2         c-2.4-0.6-4.7-1.5-6.2-2.7c6.3,3.3,13.8,4.4,21,3l-1.6,0.5c2.3-0.1,4.6-0.8,6.8-1.7c2.2-0.9,4.3-2.2,6.2-3.4         c0.3-0.2,0.7-0.5,1-0.7l-1,0.7c-3.6,2.3-7.5,3.9-11.5,4.7c1.8-0.6,3.7-1.1,5.9-2c-1.3,0.3-3,0.8-4.8,1.1         c-2.3,0.6-4.7,0.9-7,0.9c3.6-0.1,7.2-1.1,10.1-2.6c-4.6,1.5-9.6,2.1-14.4,1.4c2.6,0.3,5.3,0.2,7.9-0.3         c4.4-0.5,8.7-2,12.5-4.5l-0.4,0.3c0.3-0.2,0.6-0.4,0.8-0.6c1.5-1,2.8-2.1,4.1-3.4c1.1-1.2,2-2.5,2.7-3.9l0.4-0.6         c-0.2,0.5-0.2,0.8,0.4,0c1.3-1.6,2.3-3.6,3-5.7c0.8-2.1,1.3-4.3,1.9-6.7c0.3-1.2,0.4-2.9,0.2-4.8c0.1-0.5,0-0.8-0.1-1         c0-0.4-0.1-0.8-0.2-1.2c-0.1-1-0.3-1.9-0.5-2.8c0.2,0.9,0.4,1.9,0.5,2.8l0.1,1.1c-0.1-0.2-0.3-0.5-0.3-1         c0.3,3.3,0,6.7-0.9,9.9c-0.9,3.3-2.3,6.4-4.2,9.3c0.1-0.4,0.4-0.9,0.4-1.2c-0.3,0.6-0.6,1.2-0.9,1.8c-1.3,1.8-2.7,3.5-4.3,5         c0.4-0.5,0.8-1,1.1-1.5c-2.2,2.2-4.8,4.1-7.6,5.5c-2.8,1.4-5.8,2.5-8.9,3c-5.9,0.7-11.9-0.5-17-3.1c2.6,1.7,5.8,2.9,9.1,3.4         c-4.5-0.4-8.9-2-12.7-4.4c-3.8-2.5-7-5.9-9.1-9.8c1.2,1.2,2.8,2.7,3.9,3c0.2-0.2-1.4-2.4-0.3-1.3c2.1,2,3.9,3.6,5.6,4.7         s3.2,1.7,4.5,1.4c0.3-0.1-0.7-1.2-1.4-2.2c-0.7-1-1.2-2-0.3-1.6c1.3,0.7,3.6,2,6.3,2.7c0.8,0.3,1.6,0.5,2.4,0.7         c0.1,0.1,0.3,0,0.5-0.1c3,0.5,5.8,0.3,7.4,0.2c0.6,0,1.2-0.1,1.8-0.2c0.3,0,0.6,0.1,0.8,0.2c0.3-0.2,0.7-0.4,1-0.6         c1.5-0.4,3-0.9,4.4-1.7c0.8-0.3,1.7-0.6,2.4-1c-0.1-0.1-0.3-0.1-0.2-0.3c1.6-1.1,3.1-2.4,4.4-3.9c0.6-0.5,1.2-1,1.8-1.4         c0.3-1.2,1.1-2.7,1.9-4.4c0.8-1.7,1.5-3.7,1.7-5.4l0,0c0.3-1.7,0.4-3.4,0.4-5.2c0.1-0.3,0.2-0.6,0.3-0.8         c-0.2-0.4-0.3-0.9-0.4-1.1c-0.1-1.4-0.1-2.6-0.3-3.8c-0.1-0.2-0.5-0.5-0.7-0.9c-0.3-0.9-0.6-1.7-1-2.5         c-0.4-0.9-0.9-1.9-1.4-2.8c-1.8-3.1-4.2-5.7-7.1-7.9c0-0.2,0-0.3,0.1-0.4c-0.6-0.1-1.2-0.7-1.7-0.8c0.1,0,0.2,0,0.2-0.1         c-0.8-0.3-1.2-0.5-1.6-0.8s-0.8-0.5-1.5-0.9c-0.3-0.1-0.7-0.1-1-0.1c-0.2-0.1-0.3-0.1-0.5-0.2c-1.4-1.1-3.2-1.3-5.1-1.4         c-1.9-0.3-3.8-0.4-5.8-0.3C1781,1580.4,1780.3,1580.1,1779.1,1580.2"
   id="path80" />
						</g>
						<g
   id="g86">
							<path
   class="st2"
   d="M1809,1614.1c0.7-1.5,1.2-3.1,1.6-4.8C1810.3,1611.1,1810.1,1612.8,1809,1614.1"
   id="path84" />
						</g>
						<g
   id="g90">
							<path
   class="st2"
   d="M1772.1,1624.4c-0.3-0.6-0.7-1.2-1.2-1.8c2.9,2.8,6.5,4.7,10.5,5.6l0,0c-1.6-0.3-3.5-1-5.1-1.9         C1774.6,1625.6,1773.2,1624.7,1772.1,1624.4"
   id="path88" />
						</g>
						<g
   id="g94">
							<path
   class="st2"
   d="M1806.8,1618.2c0-0.1,0-0.2,0-0.3l0,0C1806.9,1618,1806.9,1618.1,1806.8,1618.2"
   id="path92" />
						</g>
						<g
   id="g98">
							<path
   class="st2"
   d="M1762,1621.7l-0.3-0.4c0.7,1,1.5,2,2.3,2.9C1763.4,1623.6,1762.7,1622.7,1762,1621.7"
   id="path96" />
						</g>
						<g
   id="g102">
							<path
   class="st2"
   d="M1758,1609.1c-0.3-2.5-0.3-5,0.1-7.6c0.6-3.2,1.9-6.2,3.7-8.6C1759,1597.7,1757.6,1603.4,1758,1609.1"
   id="path100" />
						</g>
						<g
   id="g106">
							<path
   class="st2"
   d="M1767.1,1618.4c-0.3-0.8-0.6-1.6-0.8-2.4c0.3,0.8,0.7,1.5,1.1,2.2         C1767.2,1618.2,1767.2,1618.4,1767.1,1618.4"
   id="path104" />
						</g>
						<g
   id="g110">
							<path
   class="st2"
   d="M1769.4,1629.1l-0.6-0.5c0.6,0.3,1.1,0.6,1.7,0.9C1770.2,1629.4,1769.7,1629.2,1769.4,1629.1"
   id="path108" />
						</g>
						<g
   id="g114">
							<path
   class="st2"
   d="M1764.6,1610c0.1,0.6,0.2,1.2,0.3,1.8c-0.1-0.3-0.3-0.7-0.5-1C1764.5,1610.6,1764.5,1610.3,1764.6,1610"
   id="path112" />
						</g>
						<g
   id="g118">
							<path
   class="st2"
   d="M1764.9,1600.8c0.2-0.8,0.5-1.5,0.8-2.2c-0.3,0.9-0.5,1.8-0.7,2.8         C1764.9,1601.1,1764.9,1600.9,1764.9,1600.8"
   id="path116" />
						</g>
						<g
   id="g122">
							<path
   class="st3"
   d="M1772.1,1563c2.5,1.1,4.7,2.6,6.7,4.4c1.9,1.8,3.5,3.9,4.8,6c-1-1.7-2.2-3.3-3.5-4.7         c1,1.1,1.8,2.2,2.5,3.3c0.7,1.2,1.3,2.4,1.8,3.8c-0.3-0.4-0.6-1-0.9-1.6s-0.7-1.1-0.9-1.2c-1.8-3-4.2-5.7-7-7.8         c-2.8-2.1-6.1-3.7-9.5-4.5c1.4-0.1,2.6,0.3,3.5,0.8C1770.5,1562.1,1771.3,1562.6,1772.1,1563"
   id="path120" />
						</g>
						<g
   id="g126">
							<path
   class="st3"
   d="M1786,1583.5c-0.1-0.7-0.2-1.4-0.3-2C1785.9,1582.1,1786,1582.8,1786,1583.5"
   id="path124" />
						</g>
						<g
   id="g130">
							<path
   class="st3"
   d="M1739.2,1582.7c-0.1,0.7-0.1,1.4-0.1,2.1C1739.1,1584.2,1739.2,1583.4,1739.2,1582.7"
   id="path128" />
						</g>
						<g
   id="g134">
							<path
   class="st3"
   d="M1763,1562.4l-1.2,0.1c-3-0.1-6.2,0.3-9.2,1.4c1.6-0.6,3.3-1.1,5.1-1.4         C1759.5,1562.1,1761.3,1562.1,1763,1562.4"
   id="path132" />
						</g>
						<g
   id="g138">
							<path
   class="st3"
   d="M1766.1,1563.5c3,0.6,5.8,2,8,3.9C1771.9,1565.6,1769.1,1564.2,1766.1,1563.5"
   id="path136" />
						</g>
						<g
   id="g142">
							<path
   class="st3"
   d="M1749,1599.9c0-0.1,0.1-0.1,0.2,0c0.1,0,0.1,0.1,0.2,0.1c0.7,0.7,1.5,1.4,2.3,1.9         c-0.2-0.1-0.5-0.1-0.7-0.3c-0.4-0.4-0.7-0.6-0.9-0.9C1749.8,1600.4,1749.6,1600.2,1749,1599.9"
   id="path140" />
						</g>
						<g
   id="g146">
							<path
   class="st3"
   d="M1739.3,1581.9L1739.3,1581.9c0-0.3,0-0.6,0.1-0.8v-0.1C1739.4,1581.3,1739.4,1581.6,1739.3,1581.9"
   id="path144" />
						</g>
						<g
   id="g150">
							<path
   class="st3"
   d="M1748.1,1599c0.1-0.1,0.1-0.2,0.1-0.3c0.4,0.4,0.7,0.8,1.1,1.2c-0.1,0-0.1,0-0.2-0.1         C1748.9,1599.6,1748.5,1599.2,1748.1,1599"
   id="path148" />
						</g>
						<g
   id="g154">
							<path
   class="st3"
   d="M1743.7,1587.5c0-0.3-0.3-0.6-0.4-0.8c0.1-0.9,0.3-1.8,0.5-2.8c0-0.2,0-0.5-0.1-0.8         c0.1-0.2,0.2-0.4,0.3-0.6c-0.5,2.2-0.5,4.6-0.1,7C1743.9,1588.9,1743.8,1588.2,1743.7,1587.5"
   id="path152" />
						</g>
						<g
   id="g158">
							<path
   class="st3"
   d="M1782.3,1584.4c0.2,1.8,0,3.8-0.4,5.7c-0.4,1.9-1.1,3.7-1.6,5.4c1.1-1.8,2-4.1,2.6-6.2         c0.5-2,0.8-3.7,1.3-4.1s0.6,1.2,0.3,3.3c-0.2,1-0.5,2.2-0.8,3.3c-0.3,1.1-0.8,2.1-1.1,2.9c0.3-0.4,0.3-0.4,0.5-0.8         c-0.3,0.4-0.5,0.8-0.6,1.2c0.3-0.4,0.6-1,1-1.6c0.3-0.6,0.6-1.1,0.9-1.3c0,0.3,0,0.6,0,0.9c0.7-1.1,1.4-2.8,1.8-4.6         c0.4-1.8,0.6-3.7,0.9-5.1c-0.3,3.3-1,6.7-2.3,10.1c-1.3,3.3-3.4,6.6-6,9.3c-2.7,2.7-6,4.9-9.7,6.2c-3.7,1.3-7.7,1.7-11.4,1.1         c-8.4-1-15.8-5.9-20.2-12.7c-0.4-0.7-0.9-1.8-1.3-3.2c-0.4-1.4-0.7-2.9-0.9-4.2c-0.9-4.5-0.5-9.3,0.8-13.8         c1.6-4.8,4.7-8.9,8.6-11.9c4-3,8.9-5,14.2-5.6c1.1-0.1,2.3,0.1,2.7,0.4c0.2,0.1,0.1,0.3-0.3,0.4s-1.2,0.3-2.4,0.5         c-4.1,0.8-8,2.3-11.4,4.6c0.1-0.3,0.6-0.6,1.2-1s1.2-0.7,1.6-1c-1.4,0.6-2.7,1.3-3.8,2.1c-1.2,0.8-2.3,1.7-3.3,2.8         c1.4-1.5,3-2.8,4.7-3.9c-2.1,1.4-4.2,3.1-6,5.2s-3.2,4.5-4.2,7.1c-0.4,0.9-0.9,1.7-1.4,2.7c-0.4,1-0.8,2.1-0.6,3.6         c0.7-3.6,2.1-7,4.2-10s4.7-5.6,7.7-7.6l0,0c2.7-1.8,5.4-3,8.5-3.7c-0.9,0.3-1.9,0.6-2.7,0.8c4.4-1.2,8.9-1.5,13.2-0.6         c-3.1-0.3-6.3-0.2-9.4,0.5s-6.1,1.9-8.8,3.7c-2.7,1.8-5.1,4.1-6.9,6.7s-3,5.6-3.6,8.6c0.6-1.6,1.2-3.5,2-5.3s1.8-3.4,3-4.3         c-3.4,4.3-5.4,9.8-5.4,15.6l-0.1-1.3c-0.2,1.8-0.1,3.7,0.3,5.5s1,3.6,1.7,5.2c0.1,0.3,0.2,0.6,0.4,0.9l-0.4-0.9         c-1.2-3.1-1.9-6.3-1.9-9.4c0.2,1.4,0.3,3,0.7,4.8c0-1-0.2-2.4-0.2-3.8c-0.1-1.8,0-3.7,0.3-5.5c-0.4,2.8-0.2,5.6,0.5,8         c-0.5-3.7-0.2-7.6,1.1-11.2c-0.6,2-0.9,4-1,6c-0.3,3.4,0.3,6.9,1.6,10.2l-0.2-0.4c0.1,0.2,0.2,0.5,0.3,0.7         c0.5,1.3,1.2,2.5,2,3.6c0.7,1,1.6,1.9,2.5,2.6l0.4,0.4c-0.3-0.2-0.5-0.3-0.1,0.3c1,1.2,2.4,2.3,3.9,3.1         c1.5,0.9,3.1,1.6,4.8,2.4c0.9,0.4,2.2,0.7,3.6,0.9c0.4,0.1,0.6,0.1,0.8,0.1c0.3,0,0.6,0,0.9,0.1c0.7,0.1,1.5,0.1,2.2,0         c-0.7,0-1.5,0-2.2,0l-0.8-0.1c0.2-0.1,0.4-0.1,0.8-0.1c-2.5-0.3-5.1-1-7.4-2.2c-2.4-1.1-4.5-2.7-6.4-4.5         c0.3,0.2,0.7,0.4,0.8,0.5c-0.4-0.3-0.9-0.6-1.3-0.9c-1.2-1.2-2.3-2.6-3.2-4c0.3,0.4,0.6,0.8,1,1c-1.3-2-2.4-4.2-3.1-6.6         c-0.7-2.3-1-4.8-1-7.3c0.3-4.6,2.1-9,4.9-12.5c-1.7,1.7-3,4-3.9,6.5c1-3.3,2.8-6.5,5.3-9c2.4-2.5,5.5-4.5,8.8-5.5         c-1.1,0.8-2.5,1.7-2.9,2.5c0.1,0.1,2.1-0.7,1,0c-1.8,1.3-3.3,2.4-4.4,3.5s-1.7,2.2-1.8,3.2c0,0.2,1-0.4,1.9-0.8         s1.7-0.6,1.3,0c-0.7,0.9-2,2.5-3,4.4c-0.3,0.5-0.6,1.1-0.9,1.7c-0.1,0.1,0,0.2,0,0.4c-0.8,2.2-1.1,4.4-1.2,5.6         c-0.1,0.5-0.1,0.9-0.1,1.4c-0.1,0.2-0.1,0.5-0.3,0.6c0.1,0.3,0.2,0.6,0.3,0.9c0.1,1.2,0.3,2.4,0.6,3.6c0.1,0.7,0.2,1.4,0.4,2         c0.1,0,0.1-0.2,0.2-0.1c0.6,1.4,1.4,2.7,2.3,3.9c0.3,0.5,0.6,1.1,0.8,1.6c0.8,0.4,1.9,1.2,3.1,2.1s2.6,1.7,3.9,2.1l0,0         c1.2,0.5,2.5,0.8,3.9,1.1c0.2,0.1,0.4,0.2,0.6,0.3c0.4-0.1,0.7-0.1,0.9-0.1c1.1,0.2,2,0.3,3,0.4c0.2-0.1,0.5-0.3,0.8-0.4         c0.7-0.1,1.4-0.2,2.1-0.4c0.8-0.2,1.6-0.4,2.3-0.7c2.6-0.9,5-2.3,7-4.2c0.1,0,0.2,0.1,0.3,0.1c0.2-0.4,0.7-0.8,0.8-1.2         c0,0.1,0,0.1,0,0.2c0.3-0.6,0.6-0.9,0.8-1.1c0.3-0.3,0.5-0.5,0.9-1c0.1-0.2,0.2-0.5,0.2-0.7c0.1-0.1,0.1-0.2,0.2-0.3         c1.1-0.9,1.4-2.3,1.8-3.7c0.5-1.4,0.9-2.9,1.1-4.4C1781.8,1585.7,1782.1,1585.2,1782.3,1584.4"
   id="path156" />
						</g>
						<g
   id="g162">
							<path
   class="st3"
   d="M1752,1602.1c1.1,0.8,2.2,1.4,3.4,1.9C1754,1603.5,1752.8,1603.1,1752,1602.1"
   id="path160" />
						</g>
						<g
   id="g166">
							<path
   class="st3"
   d="M1749.6,1572.4c0.5-0.2,1-0.4,1.6-0.6c-2.5,1.8-4.6,4.3-5.8,7.1l0,0c0.5-1.2,1.3-2.5,2.2-3.6         C1748.3,1574.2,1749.2,1573.2,1749.6,1572.4"
   id="path164" />
						</g>
						<g
   id="g170">
							<path
   class="st3"
   d="M1749.2,1599.8c0.1,0,0.1,0,0.2,0.1l0,0C1749.3,1599.9,1749.3,1599.9,1749.2,1599.8"
   id="path168" />
						</g>
						<g
   id="g174">
							<path
   class="st3"
   d="M1753.1,1565.2l0.4-0.1c-0.9,0.4-1.7,0.8-2.6,1.3C1751.5,1565.9,1752.3,1565.5,1753.1,1565.2"
   id="path172" />
						</g>
						<g
   id="g178">
							<path
   class="st3"
   d="M1763.3,1564c1.9,0.1,3.9,0.5,5.7,1.2c2.3,1,4.4,2.4,6,4.1C1771.8,1566.4,1767.7,1564.5,1763.3,1564"
   id="path176" />
						</g>
						<g
   id="g182">
							<path
   class="st3"
   d="M1754.9,1569.5c0.6-0.1,1.3-0.2,1.9-0.3c-0.6,0.1-1.2,0.3-1.8,0.5         C1755.1,1569.7,1754.9,1569.6,1754.9,1569.5"
   id="path180" />
						</g>
						<g
   id="g186">
							<path
   class="st3"
   d="M1746.5,1569.7l0.4-0.4c-0.3,0.4-0.6,0.8-0.9,1.2C1746,1570.3,1746.3,1569.9,1746.5,1569.7"
   id="path184" />
						</g>
						<g
   id="g190">
							<path
   class="st3"
   d="M1761.7,1568.9c-0.5,0-0.9-0.1-1.4,0c0.3-0.1,0.5-0.1,0.8-0.2         C1761.2,1568.7,1761.4,1568.8,1761.7,1568.9"
   id="path188" />
						</g>
						<g
   id="g194">
							<path
   class="st3"
   d="M1768.6,1570.5c0.6,0.3,1.1,0.6,1.6,0.9c-0.6-0.4-1.3-0.7-2-1         C1768.4,1570.4,1768.6,1570.4,1768.6,1570.5"
   id="path192" />
						</g>
					</g>
					<g
   id="g234">
						<g
   id="g200">
							<path
   class="st2"
   d="M1858.4,1595.7c-1.5-2.1-4.2-3.2-7-3.2c-3.3,0-6.5,1.5-6.5,5.1c0,8,19,3.4,19,17.7         c0,8.6-6.8,12.8-14.6,12.8c-5,0-9.8-1.5-13.1-5.4l5.4-5.2c1.7,2.7,4.7,4.2,7.9,4.2c3.3,0,7-1.8,7-5.5c0-8.7-19-3.7-19-18         c0-8.2,7.3-12.1,14.7-12.1c4.2,0,8.4,1.2,11.5,4.1L1858.4,1595.7z"
   id="path198" />
						</g>
						<g
   id="g204">
							<path
   class="st2"
   d="M1888,1608.1c-1.6-1.6-3.3-2.7-5.1-2.7c-5,0-8,3.9-8,8.1s3,8.1,8,8.1c2.1,0,4-0.9,5.2-2.5l4.5,4.9         c-2.8,2.8-7.4,3.8-9.8,3.8c-8.2,0-14.7-5.7-14.7-14.2s6.5-14.2,14.7-14.2c3.4,0,7.2,1.2,9.8,4.1L1888,1608.1z"
   id="path202" />
						</g>
						<g
   id="g208">
							<path
   class="st2"
   d="M1897.3,1600h6.8v4.3h0.1c1.5-3.1,4.5-5,8-5c0.8,0,1.6,0.2,2.4,0.4v6.5c-1.1-0.3-2.2-0.5-3.3-0.5         c-6.4,0-7.3,5.4-7.3,6.8v14.5h-6.8v-27H1897.3z"
   id="path206" />
						</g>
						<g
   id="g212">
							<path
   class="st2"
   d="M1944.4,1627.1h-6.4v-4.3h-0.1c-1.2,2.7-3.8,5-8.3,5c-7.3,0-9.9-5.1-9.9-10.7V1600h6.8v13.7         c0,3,0.2,8,5,8c4.5,0,6.2-3.3,6.2-6.9V1600h6.8L1944.4,1627.1L1944.4,1627.1z"
   id="path210" />
						</g>
						<g
   id="g216">
							<path
   class="st2"
   d="M1950.9,1600h6.4v4.2h0.1c1.2-2.5,3.8-4.9,8.3-4.9c4.2,0,7.1,1.6,8.5,5c2-3.4,4.9-5,8.9-5         c7.2,0,9.8,5.1,9.8,11.6v16.1h-6.8v-15.4c0-3.4-1-6.3-5-6.3c-4.2,0-5.8,3.5-5.8,7v14.7h-6.8v-16c0-3.3-1.4-5.5-4.6-5.5         c-4.5,0-6.2,3.3-6.2,6.9v14.8h-6.8V1600z"
   id="path214" />
						</g>
						<g
   id="g220">
							<path
   class="st2"
   d="M2002.7,1622c1.5,0,2.7,1.2,2.7,2.7s-1.2,2.7-2.7,2.7s-2.7-1.2-2.7-2.7S2001.1,1622,2002.7,1622z"
   id="path218" />
						</g>
						<g
   id="g224">
							<path
   class="st2"
   d="M2024.2,1600.3c8,0,13.7,5.8,13.7,13.7c0,8-5.7,13.7-13.7,13.7s-13.7-5.8-13.7-13.7         C2010.5,1606.1,2016.2,1600.3,2024.2,1600.3z M2024.2,1624.7c6.4,0,10.3-4.8,10.3-10.7s-4-10.7-10.3-10.7         c-6.4,0-10.3,4.8-10.3,10.7S2017.9,1624.7,2024.2,1624.7z"
   id="path222" />
						</g>
						<g
   id="g228">
							<path
   class="st2"
   d="M2044.1,1608.4c0-1.9-0.3-6-0.3-7.3h3.4c0.1,1.9,0.1,4.1,0.2,4.6c1.7-3,4.4-5.2,8.3-5.2         c0.7,0,1.3,0.1,2,0.3l-0.4,3.3c-0.5-0.2-1-0.2-1.3-0.2c-5.9,0-8.5,4.1-8.5,9.1v14.2h-3.4V1608.4z"
   id="path226" />
						</g>
						<g
   id="g232">
							<path
   class="st2"
   d="M2086.9,1625.4c0,13-8.6,15.2-13.9,15.2c-5.2,0-10.3-2-12.9-5.5l2.7-2.5c2.4,3.3,6.2,4.9,10.3,4.9         c10.3,0,10.5-9,10.5-12v-3.6h-0.1c-2,3.1-5.4,5.1-9.9,5.1c-7.7,0-13.9-6-13.9-13.4s6.3-13.4,13.9-13.4c4.5,0,7.9,2,9.9,5.1         h0.1v-4.4h3.4v24.5H2086.9z M2073.3,1603.4c-5.7,0-10.3,4.6-10.3,10.3s4.6,10.3,10.3,10.3s10.3-4.6,10.3-10.3         S2079,1603.4,2073.3,1603.4z"
   id="path230" />
						</g>
					</g>
				</g>
			</g>
			<text
   transform="matrix(1 0 0 1 1706.9419 1683.7043)"
   class="st4 st5"
   id="text240">© 2020 Scrum.org. All Rights Reserved.</text>
		</g>
	</g>
	<g
   id="g254">
		<g
   id="g252">
			<line
   class="st6"
   x1="100.5"
   y1="1015.5"
   x2="106.5"
   y2="1015.5"
   id="line246" />
			<line
   class="st7"
   x1="118.5"
   y1="1015.5"
   x2="3708.9"
   y2="1015.5"
   id="line248" />
			<line
   class="st6"
   x1="3714.9"
   y1="1015.5"
   x2="3720.9"
   y2="1015.5"
   id="line250" />
		</g>
	</g>
	<g
   id="g262">
		<g
   id="g260">
			<ellipse
   class="st8"
   cx="1910.7"
   cy="1015.5"
   rx="386.2"
   ry="386.2"
   id="ellipse256" />
			<path
   class="st9"
   d="M1910.7,1407.7c-52.9,0-104.3-10.4-152.6-30.8c-46.7-19.8-88.6-48-124.6-84s-64.3-77.9-84-124.6     c-20.5-48.3-30.8-99.7-30.8-152.6s10.4-104.3,30.8-152.6c19.8-46.7,48-88.6,84-124.6s77.9-64.3,124.6-84     c48.3-20.4,99.7-30.8,152.6-30.8s104.3,10.4,152.6,30.8c46.7,19.8,88.6,48,124.6,84s64.3,77.9,84,124.6     c20.4,48.3,30.8,99.7,30.8,152.6c0,52.9-10.4,104.3-30.8,152.6c-19.8,46.7-48,88.6-84,124.6s-77.9,64.3-124.6,84     C2015,1397.3,1963.6,1407.7,1910.7,1407.7z M1910.7,635.2c-51.3,0-101.1,10.1-148,29.9c-45.3,19.2-86,46.6-120.9,81.5     s-62.3,75.6-81.5,120.9c-19.8,46.9-29.9,96.7-29.9,148s10.1,101.1,29.9,148c19.2,45.3,46.6,85.9,81.5,120.9     c34.9,34.9,75.6,62.3,120.9,81.5c46.9,19.8,96.7,29.9,148,29.9s101.1-10.1,148-29.9c45.3-19.2,85.9-46.6,120.9-81.5     c34.9-34.9,62.3-75.6,81.5-120.9c19.8-46.9,29.9-96.7,29.9-148s-10.1-101.1-29.9-148c-19.2-45.3-46.6-86-81.5-120.9     s-75.6-62.3-120.9-81.5C2011.9,645.3,1962.1,635.2,1910.7,635.2z"
   id="path258" />
		</g>
	</g>
	<rect
   x="830.9"
   y="557.7"
   class="st10"
   width="316.5"
   height="217.2"
   id="rect264" />
	<rect
   x="830.9"
   y="1258.5"
   class="st10"
   width="316.5"
   height="217.2"
   id="rect266" />
	<rect
   x="2673.8"
   y="557.7"
   class="st10"
   width="316.5"
   height="217.2"
   id="rect268" />
	<rect
   x="2673.8"
   y="1258.5"
   class="st10"
   width="316.5"
   height="217.2"
   id="rect270" />
</g>
<g
   id="Editable_Text"
   style="display:inline">
	<text
   class="st11 st12 st13"
   id="text273"
   x="1667.2666"
   y="168.4324">Marktwaarde</text>
	<text
   class="st11 st12 st13"
   id="text275"
   x="1467.5469"
   y="1915.3416">Organisatiecompetentie</text>
	<rect
   x="3114.5"
   y="561"
   class="st10"
   width="670.20001"
   height="207.2"
   id="rect277" />
	<text
   transform="scale(0.99307607,1.0069722)"
   class="st14 st15"
   id="text279"
   x="3134.2051"
   y="565.35522"
   style="stroke-width:0.993076">Welke waarde wordt </text>
	<text
   transform="scale(0.99307607,1.0069722)"
   class="st14 st15"
   id="text281"
   x="3134.2051"
   y="640.43237"
   style="stroke-width:0.993076">momenteel door</text>
	<text
   transform="scale(0.99307607,1.0069722)"
   class="st14 st15"
   id="text283"
   x="3134.2051"
   y="715.50854"
   style="stroke-width:0.993076"><tspan
     sodipodi:role="line"
     id="tspan186"
     x="3134.2051"
     y="715.50854"
     style="stroke-width:0.993076">de organisatie </tspan><tspan
     sodipodi:role="line"
     id="tspan188"
     x="3134.2051"
     y="794.25854"
     style="stroke-width:0.993076">geleverd?</tspan></text>
	<rect
   x="3114.5"
   y="1301.7"
   class="st10"
   width="670.20001"
   height="129.39999"
   id="rect285" />
	<text
   transform="scale(0.99307607,1.0069722)"
   class="st14 st15"
   id="text287"
   x="3130.1772"
   y="1348.6263"
   style="stroke-width:0.993076">Hoe snel kan waarde</text>
	<text
   transform="scale(0.99307607,1.0069722)"
   class="st14 st15"
   id="text289"
   x="3130.1772"
   y="1423.7025"
   style="stroke-width:0.993076">geleverd worden?</text>
	<rect
   x="34.900002"
   y="561"
   class="st10"
   width="670.20001"
   height="207.2"
   id="rect291" />
	<text
   transform="scale(0.99307607,1.0069722)"
   class="st14 st15"
   id="text293"
   x="191.07436"
   y="605.20911"
   style="stroke-width:0.993076">Welke potentiële</text>
	<text
   transform="scale(0.99307607,1.0069722)"
   class="st14 st15"
   id="text295"
   x="214.71404"
   y="678.81305"
   style="stroke-width:0.993076">waarde kan nog</text>
	<text
   transform="scale(0.99307607,1.0069722)"
   class="st14 st15"
   id="text297"
   x="182.19542"
   y="755.36243"
   style="stroke-width:0.993076">worden behaald?</text>
	<rect
   x="34.900002"
   y="1262.8"
   class="st10"
   width="670.20001"
   height="207.2"
   id="rect299" />
	<text
   transform="scale(0.99307607,1.0069722)"
   class="st14 st15"
   id="text301"
   x="719.6366"
   y="1272.2507"
   style="text-align:end;text-anchor:end;stroke-width:0.993076">Hoe effectief is de </text>
	<text
   transform="scale(0.99307607,1.0069722)"
   class="st14 st15"
   id="text303"
   x="718.38892"
   y="1351.8124"
   style="stroke-width:0.993076"><tspan
   style="text-align:end;text-anchor:end"
   id="tspan194">organisatie</tspan> in het </text>
	<text
   transform="scale(0.99307607,1.0069722)"
   class="st14 st15"
   id="text305"
   x="722.41534"
   y="1424.9683"
   style="text-align:end;text-anchor:end;stroke-width:0.993076"><tspan
     sodipodi:role="line"
     id="tspan190"
     x="722.41534"
     y="1424.9683">verbeteren van</tspan><tspan
     sodipodi:role="line"
     id="tspan192"
     x="722.41534"
     y="1503.7183"> waarde?</tspan></text>
	<text
   transform="scale(0.98994953,1.0101525)"
   class="st8 st14 st15"
   id="text307"
   x="831.07434"
   y="610.77563"
   style="stroke-width:0.989949">Unrealized </text>
	<text
   transform="scale(0.98994953,1.0101525)"
   class="st8 st14 st15"
   id="text309"
   x="905.61743"
   y="684.03192"
   style="stroke-width:0.989949">Value</text>
	<text
   transform="scale(0.98994953,1.0101525)"
   class="st8 st14 st15"
   id="text311"
   x="925.31738"
   y="757.28815"
   style="stroke-width:0.989949">(UV)</text>
	<text
   transform="scale(0.98994953,1.0101525)"
   class="st8 st14 st15"
   id="text313"
   x="851.87415"
   y="1304.507"
   style="stroke-width:0.989949">Ability to</text>
	<text
   transform="scale(0.98994953,1.0101525)"
   class="st8 st14 st15"
   id="text315"
   x="860.58575"
   y="1377.7632"
   style="stroke-width:0.989949">Innovate</text>
	<text
   transform="scale(0.98994953,1.0101525)"
   class="st8 st14 st15"
   id="text317"
   x="918.99304"
   y="1451.0195"
   style="stroke-width:0.989949">(A2I)</text>
	<text
   transform="scale(0.98994953,1.0101525)"
   class="st8 st14 st15"
   id="text319"
   x="2740.2847"
   y="608.79572"
   style="stroke-width:0.989949">Current</text>
	<text
   transform="scale(0.98994953,1.0101525)"
   class="st8 st14 st15"
   id="text321"
   x="2770.2805"
   y="682.052"
   style="stroke-width:0.989949">Value</text>
	<text
   transform="scale(0.98994953,1.0101525)"
   class="st8 st14 st15"
   id="text323"
   x="2791.0696"
   y="755.30823"
   style="stroke-width:0.989949">(CV)</text>
	<text
   transform="scale(0.98994953,1.0101525)"
   class="st8 st14 st15"
   id="text325"
   x="2743.7959"
   y="1302.5271"
   style="stroke-width:0.989949">Time to</text>
	<text
   transform="scale(0.98994953,1.0101525)"
   class="st8 st14 st15"
   id="text327"
   x="2750.7261"
   y="1375.7833"
   style="stroke-width:0.989949">Market</text>
	<text
   transform="scale(0.98994953,1.0101525)"
   class="st8 st14 st15"
   id="text329"
   x="2771.5149"
   y="1449.0397"
   style="stroke-width:0.989949">(T2M)</text>
	<text
   class="st14 st16"
   id="text331"
   style="font-size:85.3333px"
   x="1606.0951"
   y="1001.3608">Wendbaarheid</text>
	<text
   class="st17 st18"
   id="text333"
   x="1645.3625"
   y="1121.1718">Business Waarde</text>
</g>
</svg>
